<?xml version="1.0" encoding="utf-8"?><svg width="180" height="180" viewBox="0 0 180 180" xmlns="http://www.w3.org/2000/svg" xmlns:xlink="http://www.w3.org/1999/xlink"><svg width="59.2" height="59.2" viewBox="-5 -5 59.2 59.2" id="facebook"><path fill="#231F20" d="M24.6 0C11 0 0 11 0 24.6c0 13.6 11 24.6 24.6 24.6s24.6-11 24.6-24.6C49.2 11 38.2 0 24.6 0zm6.5 24.5h-4.3v15.2h-6.3V24.5h-3v-5.4h3v-3.5c0-2.5 1.2-6.4 6.4-6.4h4.7v5.2h-3.4c-.6 0-1.3.3-1.3 1.5v3.2h4.8l-.6 5.4z"/></svg><svg width="59.2" height="59.2" viewBox="-5 -5 59.2 59.2" id="linkedin" x="60" y="60"><g fill="#231F20"><path d="M24.6 0C11 0 0 11 0 24.6c0 13.6 11 24.6 24.6 24.6 13.6 0 24.6-11 24.6-24.6C49.2 11 38.2 0 24.6 0zm13.7 36.6c0 1.1-.9 2-2 2H12.9c-1.1 0-2-.9-2-2V12.9c0-1.1.9-2 2-2h23.4c1.1 0 2 .9 2 2v23.7z"/><path d="M29.4 21.3c-2.2 0-3.2 1.2-3.7 2.1v-1.8h-4.1c.1 1.2 0 12.5 0 12.5h4.1v-7c0-.4 0-.7.1-1 .3-.7 1-1.5 2.1-1.5 1.5 0 2.1 1.1 2.1 2.8v6.7h4.2v-7.2c0-3.8-2.1-5.6-4.8-5.6zM17.1 15.6c-1.4 0-2.3.9-2.3 2.2 0 1.2.9 2.2 2.3 2.2s2.3-1 2.3-2.2c0-1.3-.8-2.2-2.3-2.2zM15 21.6h4.2v12.5H15z"/></g></svg><svg width="59.2" height="59.2" viewBox="-5 -5 59.2 59.2" id="twitter" x="120" y="120"><path fill="#231F20" d="M24.6 0C11 0 0 11 0 24.6c0 13.6 11 24.6 24.6 24.6 13.6 0 24.6-11 24.6-24.6C49.2 11 38.2 0 24.6 0zM37 19.7v.8c0 8.2-6.2 17.7-17.7 17.7-3.5 0-6.8-1-9.5-2.8.5.1 1 .1 1.5.1 2.9 0 5.6-1 7.7-2.7-2.7-.1-5-1.8-5.8-4.3.4.1.8.1 1.2.1.6 0 1.1-.1 1.6-.2-2.8-.6-5-3.1-5-6.1v-.1c.8.5 1.8.7 2.8.8-1.7-1.1-2.8-3-2.8-5.2 0-1.1.3-2.2.8-3.1 3.1 3.8 7.6 6.2 12.8 6.5-.1-.5-.2-.9-.2-1.4 0-3.4 2.8-6.2 6.2-6.2 1.8 0 3.4.8 4.5 2 1.4-.3 2.7-.8 3.9-1.5-.5 1.5-1.4 2.7-2.7 3.4 1.3-.2 2.5-.5 3.6-1-.6 1.2-1.7 2.3-2.9 3.2z"/></svg></svg>