<?xml version="1.0" encoding="utf-8"?>
<!-- Generator: Adobe Illustrator 18.1.1, SVG Export Plug-In . SVG Version: 6.00 Build 0)  -->
<svg version="1.1" id="Layer_1" xmlns="http://www.w3.org/2000/svg" xmlns:xlink="http://www.w3.org/1999/xlink" x="0px" y="0px"
	 width="49.2px" height="49.2px" viewBox="0 0 49.2 49.2" enable-background="new 0 0 49.2 49.2" xml:space="preserve">
<g>
	<path fill="#231F20" d="M25.7,24.7c0.2-0.1,0.4-0.1,0.6-0.2c-0.4-0.9-0.8-1.7-1.2-2.6c-7.9,2.4-15.4,2.2-15.7,2.2
		c0,0.2,0,0.3,0,0.5c0,3.9,1.5,7.5,3.9,10.2c0,0,0,0,0,0S17.4,27.4,25.7,24.7z"/>
	<path fill="#231F20" d="M23.8,19.6c-2.6-4.7-5.5-8.5-5.7-8.8c-4.3,2-7.4,5.9-8.4,10.7C10.1,21.5,16.5,21.6,23.8,19.6z"/>
	<path fill="#231F20" d="M34.7,13.2c-2.7-2.4-6.2-3.8-10.1-3.8c-1.2,0-2.4,0.2-3.6,0.4c0.2,0.3,3.1,4.1,5.7,8.9
		C32.5,16.5,34.7,13.2,34.7,13.2z"/>
	<path fill="#231F20" d="M21,9.8C21,9.8,20.9,9.8,21,9.8C20.9,9.8,21,9.8,21,9.8L21,9.8z"/>
	<path fill="#231F20" d="M15.2,36.7L15.2,36.7c-0.1-0.1-0.2-0.2-0.3-0.3C15.1,36.6,15.2,36.7,15.2,36.7z"/>
	<path fill="#231F20" d="M27.9,21c0.4,0.7,0.7,1.5,1,2.2c0.1,0.3,0.2,0.5,0.3,0.8c5.2-0.7,10.4,0.5,10.6,0.5c0-3.6-1.3-6.9-3.5-9.5
		C36.4,15,33.9,18.5,27.9,21z"/>
	<path fill="#231F20" d="M27.2,27.1c-9,3.1-11.9,9.5-12,9.5c2.6,2,5.8,3.2,9.4,3.2c2.1,0,4.1-0.4,6-1.2c-0.2-1.3-1.1-6-3.3-11.6
		C27.3,27.1,27.3,27.1,27.2,27.1z"/>
	<path fill="#231F20" d="M24.6,0C11,0,0,11,0,24.6c0,13.6,11,24.6,24.6,24.6s24.6-11,24.6-24.6C49.2,11,38.2,0,24.6,0z M41.1,31.6
		c-0.4,1.1-1,2.1-1.6,3c-0.6,0.9-1.4,1.8-2.2,2.6c-0.8,0.8-1.7,1.5-2.6,2.2c-1,0.6-2,1.2-3,1.6c-1.1,0.5-2.2,0.8-3.4,1
		c-1.2,0.2-2.4,0.4-3.6,0.4c-1.2,0-2.4-0.1-3.6-0.4c-1.1-0.2-2.3-0.6-3.4-1c-1.1-0.4-2.1-1-3-1.6c-0.9-0.6-1.8-1.4-2.6-2.2
		c-0.8-0.8-1.5-1.7-2.2-2.6c-0.6-1-1.2-2-1.6-3c-0.5-1.1-0.8-2.2-1-3.4c-0.2-1.2-0.4-2.4-0.4-3.6c0-1.2,0.1-2.4,0.4-3.6
		c0.2-1.2,0.6-2.3,1-3.4c0.4-1.1,1-2.1,1.6-3c0.6-0.9,1.4-1.8,2.2-2.6c0.8-0.8,1.7-1.5,2.6-2.2c1-0.6,2-1.2,3-1.7
		c1.1-0.5,2.2-0.8,3.4-1c1.2-0.2,2.4-0.4,3.6-0.4c1.2,0,2.4,0.1,3.6,0.4c1.1,0.2,2.3,0.6,3.4,1c1.1,0.4,2.1,1,3,1.7
		c0.9,0.6,1.8,1.4,2.6,2.2c0.8,0.8,1.5,1.7,2.2,2.6c0.6,1,1.2,2,1.6,3c0.5,1.1,0.8,2.2,1,3.4c0.2,1.2,0.4,2.4,0.4,3.6
		c0,1.2-0.1,2.4-0.4,3.6C41.9,29.4,41.5,30.5,41.1,31.6z"/>
	<path fill="#231F20" d="M30.2,26.4c2,5.5,2.8,10,3,10.9c3.4-2.3,5.9-6,6.5-10.2C39.4,26.9,35.1,25.6,30.2,26.4z"/>
</g>
</svg>
