<svg id="Layer_1" xmlns="http://www.w3.org/2000/svg" width="60" height="60" viewBox="0 0 60 60"><style>.st0{fill:#aaa}</style><path id="logo" class="st0" d="M60 28.1v1H31.1v-7.7h22.1c3.7-.2 6.8 3 6.8 6.7zm-9-16.9v7.7H31.1v-7.7H51zm0-.8V.6h-9.8l9.8 9.8zm4.1 20.1c2.6 0 4.9 2.2 4.9 4.9 0 2.6-2.2 4.9-4.9 4.9-2.6 0-4.9-2.2-4.9-4.9.1-2.8 2.2-4.9 4.9-4.9zM28 0h.8v28.9h-7.7V6.8c0-3.7 3-6.8 6.9-6.8zM11 9.1h7.7v19.8H11V9.1zm-.7 0H.5V19l9.8-9.9zm20.1-4.2c0-2.6 2.2-4.9 4.9-4.9s4.9 2.2 4.9 4.9c0 2.6-2.2 4.9-4.9 4.9-2.8-.1-4.9-2.2-4.9-4.9zM0 31.9v-1h28.9v7.7H6.8c-3.7 0-6.8-3-6.8-6.7zm8.6 16.8V41h20.3v7.7H8.6zm0 .9v9.8h9.8l-9.8-9.8zM4.9 29.4c-2.6 0-4.9-2.2-4.9-4.9s2.2-4.9 4.9-4.9c2.6 0 4.9 2.2 4.9 4.9-.1 2.7-2.2 4.9-4.9 4.9zM32 59.9h-.8V31h7.7v22.2c0 3.7-3 6.7-6.9 6.7zm17-8.4h-7.7V31H49v20.5zm.7.1h9.8v-9.8l-9.8 9.8zm-20.1 3.5c0 2.6-2.2 4.9-4.9 4.9s-4.9-2.2-4.9-4.9c0-2.6 2.2-4.9 4.9-4.9s4.9 2.2 4.9 4.9z"/></svg>