<svg xmlns="http://www.w3.org/2000/svg" width="273" height="273" viewBox="0 0 273 273"><defs><style>.cls-1 { fill: #05181b; fill-rule: evenodd; }</style></defs><path id="logo" class="cls-1" d="M272.83 127.762v4.138H141.252V96.858h100.71a30.886 30.886 0 0 1 30.868 30.904zm-40.99-76.647v35.04H141.25v-35.04h90.587zm.25-3.554V2.985h-44.523zm18.73 91.32a22.2 22.2 0 1 1-22.18 22.2 22.19 22.19 0 0 1 22.18-22.2zM127 .162h4.133V131.9h-35V31.067A30.885 30.885 0 0 1 127 .163zM50.44 41.83h35v90.07h-35V41.83zm-3.55-.25H2.368v44.576zM138.1 22.2a22.178 22.178 0 1 1 22.178 22.205A22.19 22.19 0 0 1 138.1 22.2zM.177 145.236V141.1h131.578v35.04H31.045A30.885 30.885 0 0 1 .176 145.236zm39.132 76.648v-35.042h92.445v35.042H39.31zm-.252 3.554v44.577H83.58zm-16.87-91.318a22.205 22.205 0 1 1 22.177-22.205 22.192 22.192 0 0 1-22.178 22.205zM146.01 272.835h-4.132V141.1h35v100.83a30.886 30.886 0 0 1-30.867 30.905zm76.556-38.242h-35V141.1h35v93.5zm3.55.252h44.523v-44.578zM134.908 250.8a22.178 22.178 0 1 1-22.178-22.2 22.192 22.192 0 0 1 22.178 22.2z"/></svg>