<?xml version="1.0" encoding="utf-8"?>
<!-- Generator: Adobe Illustrator 22.1.0, SVG Export Plug-In . SVG Version: 6.00 Build 0)  -->
<svg version="1.1" id="Layer_1" xmlns="http://www.w3.org/2000/svg" xmlns:xlink="http://www.w3.org/1999/xlink" x="0px" y="0px"
	 width="60px" height="60px" viewBox="0 0 60 60" style="enable-background:new 0 0 60 60;" xml:space="preserve">
<style type="text/css">
	.st0{fill:#AAAAAA;}
</style>
<path id="logo" class="st0" d="M60,28.1v1H31.1v-7.7h22.1C56.9,21.2,60,24.4,60,28.1z M51,11.2v7.7H31.1v-7.7H51z M51,10.4V0.6h-9.8
	L51,10.4z M55.1,30.5c2.6,0,4.9,2.2,4.9,4.9c0,2.6-2.2,4.9-4.9,4.9c-2.6,0-4.9-2.2-4.9-4.9C50.3,32.6,52.4,30.5,55.1,30.5z M28,0
	h0.8v28.9h-7.7V6.8C21.1,3.1,24.1,0,28,0z M11,9.1h7.7v19.8H11V9.1z M10.3,9.1H0.5V19C0.5,19,10.3,9.1,10.3,9.1z M30.4,4.9
	c0-2.6,2.2-4.9,4.9-4.9s4.9,2.2,4.9,4.9c0,2.6-2.2,4.9-4.9,4.9C32.5,9.7,30.4,7.6,30.4,4.9z M0,31.9v-1h28.9v7.7H6.8
	C3.1,38.6,0,35.6,0,31.9z M8.6,48.7V41h20.3v7.7H8.6z M8.6,49.6v9.8h9.8L8.6,49.6z M4.9,29.4c-2.6,0-4.9-2.2-4.9-4.9
	s2.2-4.9,4.9-4.9c2.6,0,4.9,2.2,4.9,4.9C9.7,27.2,7.6,29.4,4.9,29.4z M32,59.9h-0.8V31h7.7v22.2C38.9,56.9,35.9,59.9,32,59.9z
	 M49,51.5h-7.7V31H49V51.5z M49.7,51.6h9.8v-9.8L49.7,51.6z M29.6,55.1c0,2.6-2.2,4.9-4.9,4.9s-4.9-2.2-4.9-4.9
	c0-2.6,2.2-4.9,4.9-4.9S29.6,52.4,29.6,55.1z"/>
</svg>
